<?xml version="1.0" encoding="UTF-8"?>
<svg width="479px" height="479px" viewBox="0 0 479 479" version="1.1" xmlns="http://www.w3.org/2000/svg" xmlns:xlink="http://www.w3.org/1999/xlink">
    <!-- Generator: Sketch 46 (44423) - http://www.bohemiancoding.com/sketch -->
    <title>Artboard</title>
    <desc>Created with Sketch.</desc>
    <defs>
        <linearGradient x1="103.785262%" y1="-54.4416279%" x2="0.657684949%" y2="99.3423151%" id="linearGradient-1">
            <stop stop-color="#A473FF" offset="0%"></stop>
            <stop stop-color="#6A41B8" offset="100%"></stop>
        </linearGradient>
        <linearGradient x1="94.8372393%" y1="-48.2448529%" x2="-2.32010461%" y2="260.650243%" id="linearGradient-2">
            <stop stop-color="#FDEB4E" offset="0%"></stop>
            <stop stop-color="#F8D800" offset="100%"></stop>
        </linearGradient>
    </defs>
    <g id="Page-1" stroke="none" stroke-width="1" fill="none" fill-rule="evenodd">
        <g id="Artboard">
            <path d="M34.3800345,306.34444 C27.6404639,285.440807 24,263.145542 24,240 C24,120.706494 120.706494,24 240,24 C359.293506,24 456,120.706494 456,240 C456,263.2768 452.318129,285.693653 445.505006,306.699939 C419.86126,282.355694 359.194247,273 240.350941,273 C121.681243,273 60.2484025,282.122282 34.3800345,306.34444 L34.3800345,306.34444 Z" id="Combined-Shape" fill="url(#linearGradient-1)"></path>
            <path d="M239.859843,264.566727 C375.578462,264.566727 401.727426,247.103761 387.750959,193.02399 C373.774493,138.944218 321.537851,97.4332727 239.859843,97.4332727 C158.181835,97.4332727 104.471952,139.338755 91.9687271,193.02399 C79.4655022,246.709224 104.141224,264.566727 239.859843,264.566727 Z" id="Combined-Shape" stroke="#979797" fill="#FFFFFF"></path>
            <path d="M239.889816,224.120886 C121.136025,224.120886 99.5447677,211.843853 110.48509,174.935254 C121.425411,138.026655 168.421559,109.216636 239.889816,109.216636 C311.358073,109.216636 357.065134,137.755411 369.294543,174.935254 C381.523951,212.115097 358.643608,224.120886 239.889816,224.120886 Z M433.667671,335.757871 L433.66767,335.757864 C398.369171,407.011528 324.905521,456 240,456 C155.627257,456 82.5532401,407.624399 47.0013195,337.096565 C47.287091,300.507472 94.0447398,288 240.682073,288 C385.328433,288 431.482203,300.445093 433.667671,335.757871 Z" id="Combined-Shape" fill="url(#linearGradient-2)"></path>
            <path d="M161.549437,441.312103 C161.567231,441.075436 161.564125,440.833861 161.538437,440.589454 L144.304887,276.623183 C144.073969,274.426146 142.105723,272.832291 139.908686,273.063209 L113.072672,275.883788 C110.875635,276.114706 109.281781,278.082952 109.512699,280.279989 L124.464433,422.536238 C136.117336,429.927346 148.52638,436.233343 161.549437,441.312103 L161.549437,441.312103 Z M357.397369,421.34195 L372.223578,280.279989 C372.454496,278.082952 370.860642,276.114706 368.663605,275.883788 L341.827591,273.063209 C339.630554,272.832291 337.662308,274.426146 337.43139,276.623183 L320.19784,440.589454 C320.196656,440.600719 320.19552,440.611977 320.194432,440.62323 C333.275265,435.38976 345.724868,428.914042 357.397369,421.34195 L357.397369,421.34195 Z" id="Combined-Shape" fill="#FFFFFF"></path>
        </g>
    </g>
</svg>